<?xml version="1.0" encoding="UTF-8"?>
<svg id="Capa_1" xmlns="http://www.w3.org/2000/svg" version="1.1" viewBox="0 0 512 512">
  <!-- Generator: Adobe Illustrator 29.3.1, SVG Export Plug-In . SVG Version: 2.1.0 Build 151)  -->
  <defs>
    <style>
      .st0 {
        fill: #e4f3ed;
      }
    </style>
  </defs>
  <path class="st0" d="M512,256C512,114.6,397.4,0,256,0S0,114.6,0,256c0,120,82.7,220.8,194.2,248.5v-170.3h-52.8v-78.2h52.8v-33.7c0-87.1,39.4-127.5,125-127.5,16.2,0,44.2,3.2,55.7,6.4v70.8c-6-.6-16.5-1-29.6-1-42,0-58.2,15.9-58.2,57.2v27.8h83.6l-14.4,78.2h-69.3v175.9c126.8-15.3,225-123.2,225-254.1h0Z"/>
</svg>