<?xml version="1.0" encoding="UTF-8"?>
<svg id="Capa_1" xmlns="http://www.w3.org/2000/svg" version="1.1" viewBox="0 0 1314.65 476.21">
  <!-- Generator: Adobe Illustrator 29.3.1, SVG Export Plug-In . SVG Version: 2.1.0 Build 151)  -->
  <defs>
    <style>
      .st0, .st1 {
        fill: #003817;
      }

      .st2 {
        fill: #009d71;
      }

      .st3 {
        stroke: #1e1e18;
      }

      .st3, .st4 {
        fill: #cc522f;
      }

      .st3, .st5 {
        stroke-linecap: round;
        stroke-linejoin: round;
      }

      .st3, .st5, .st1 {
        stroke-width: 3px;
      }

      .st5 {
        fill: #50c878;
      }

      .st5, .st1 {
        stroke: #003817;
      }

      .st1 {
        stroke-miterlimit: 10;
      }
    </style>
  </defs>
  <g>
    <path class="st1" d="M227.07,315.46c-1.18,0-2.36-.13-3.54-.39-6.3-1.18-9.45-6.76-9.45-16.73,0-16.14,8.14-43.64,24.41-82.49,6.3-14.7,10.96-29,13.98-42.92,1.18-5.38,1.77-9.68,1.77-12.9s-.13-5.74-.39-7.58c-.66-5.77-2.82-9.78-6.5-12.01-6.56-3.54-13.91-5.32-22.05-5.32-8.53,0-17.52,2.1-26.97,6.3-9.45,4.2-18.34,9.32-26.68,15.36-8.34,6.04-15.92,13.22-22.74,21.56-6.83,8.34-11.91,17.06-15.26,26.18-3.35,9.12-5.02,17.36-5.02,24.71,0,3.02.26,5.91.79,8.66,2.1,9.06,6.04,15.82,11.81,20.28,5.77,4.46,12.6,6.69,20.47,6.69,11.02,0,21.36-4.85,31.01-14.57,9.65-9.71,14.47-20.01,14.47-30.91,0-5.91-1.18-10.17-3.54-12.8-2.36-2.62-4.79-3.94-7.28-3.94s-4.99.36-7.48,1.08c-2.5.72-3.74.66-3.74-.2s1.51-1.97,4.53-3.35c3.02-1.38,6.17-2.07,9.45-2.07s6.3.98,9.06,2.95c5.12,3.94,7.68,9.91,7.68,17.92s-3.05,16.05-9.15,24.12c-6.1,8.07-13.62,14.57-22.54,19.49-8.93,4.92-17.75,7.38-26.48,7.38s-16.83-3.18-24.31-9.55c-7.48-6.36-12.47-14.93-14.96-25.69-.65-3.15-.98-6.5-.98-10.04,0-8.27,2.03-17.26,6.1-26.97,4.07-9.71,9.94-18.73,17.62-27.07,7.68-8.33,15.98-15.29,24.9-20.87,8.92-5.58,18.37-10.2,28.35-13.88,9.97-3.81,19.36-5.71,28.15-5.71s16.8,1.38,24.02,4.13c12.73,5.51,19.1,17.2,19.1,35.04,0,13.13-4.73,29.4-14.18,48.83-5.91,12.08-11.16,25.07-15.75,38.98-6.83,20.61-10.24,34.91-10.24,42.92,0,6.04,2.03,9.06,6.1,9.06,8.14,0,22.38-10.57,42.72-31.7,14.3-14.83,25.53-31.11,33.67-48.83,5.25-11.29,7.88-21.66,7.88-31.11,0-4.99-.39-8.5-1.18-10.53-.79-2.03-1.31-3.35-1.57-3.94-.26-.59-.79-1.11-1.58-1.58-.79-.46-1.31-.69-1.58-.69-1.84-.52-3.74-.95-5.71-1.28-1.97-.33-3.12-1.21-3.45-2.66-.33-1.44.36-2.29,2.07-2.56l3.74.39c6.04,1.71,11.29,5.97,15.75,12.8,2.49,3.81,3.74,8.37,3.74,13.68s-1.25,11.58-3.74,18.8c-6.04,16.01-15.36,31.8-27.96,47.35-12.6,15.55-25.04,27.46-37.31,35.73-12.27,8.27-22.28,12.4-30.02,12.4Z"/>
    <path class="st1" d="M330.82,266.24c-1.84,4.46-2.76,9.45-2.76,14.96,0,3.68.82,6.6,2.46,8.76,1.64,2.17,3.97,3.25,6.99,3.25,11.94,0,22.77-11.22,32.48-33.67.92-2.1,2.03-3.02,3.35-2.76.52.13.79.46.79.98s-1.48,3.97-4.43,10.34c-2.95,6.37-5.94,11.52-8.96,15.45-6.69,9.19-14.96,13.78-24.81,13.78-5.25,0-9.71-1.7-13.39-5.12-3.68-3.41-5.51-8.07-5.51-13.98s1.41-12.17,4.23-18.8c2.82-6.63,6.66-12.8,11.52-18.51,4.85-5.71,10.43-9.87,16.73-12.5,3.02-1.31,5.91-1.97,8.66-1.97s5.32.79,7.68,2.36c2.23,1.84,3.35,3.87,3.35,6.1,0,7.88-4.73,15.42-14.17,22.64-2.89,2.23-6.96,4.23-12.21,6-5.25,1.77-9.25,2.66-12.01,2.66ZM363.9,234.74c0-2.62-1.05-3.94-3.15-3.94-3.68,0-9.25,4.53-16.73,13.58-4.46,5.51-8.4,11.68-11.81,18.51,2.23,0,5.48-.79,9.75-2.36,4.26-1.58,7.97-3.67,11.12-6.3,7.22-6.17,10.83-12.66,10.83-19.49Z"/>
    <path class="st1" d="M397.17,217.62c0,5.91-3.74,11.49-11.22,16.73,2.62.13,6.13.2,10.53.2s9.94-.33,16.64-.98c.26.39.39,1.45.39,3.15s-.79,4.23-2.36,7.58c-1.57,3.35-2.99,6.24-4.23,8.66-1.25,2.43-2.43,4.73-3.54,6.89-1.12,2.17-2.36,4.82-3.74,7.97-1.38,3.15-2.53,6.04-3.45,8.66-3.28,9.98-2.76,14.96,1.58,14.96,5.51,0,13.65-10.96,24.41-32.88.92-1.7,1.67-2.36,2.26-1.97.59.39.89.89.89,1.48s-.86,2.63-2.56,6.1c-1.71,3.48-3.54,7.06-5.51,10.73-1.97,3.68-5.05,7.94-9.25,12.8-4.99,6.04-9.78,9.06-14.37,9.06-5.12,0-8.66-3.08-10.63-9.25-.39-1.18-.59-2.95-.59-5.32s.75-5.51,2.26-9.45c1.51-3.94,3.9-8.73,7.19-14.37,3.28-5.64,5.12-8.96,5.51-9.94.39-.98.59-1.94.59-2.85,0-4.07-5.25-6.23-15.75-6.5l-2.36,6.3c-8.27,21.66-16.21,36.16-23.82,43.51-1.31,1.18-1.97.79-1.97-1.18,0-.39.13-.85.39-1.38,7.35-9.71,13.71-21.19,19.1-34.45,5.38-13.26,9.12-25.86,11.22-37.8.79-4.07,2.62-6.1,5.51-6.1s4.99,1.84,6.3,5.51c.39,1.18.59,2.56.59,4.13Z"/>
    <path class="st1" d="M463.31,285.14c0,4.2,1.7,6.3,5.12,6.3,6.17,0,14.37-10.3,24.61-30.91.39-.79.75-1.58,1.08-2.36.33-.79.85-1.31,1.58-1.57.72-.26,1.21-.1,1.48.49.26.59.13,1.54-.39,2.85-10.5,24.41-21.13,36.62-31.89,36.62-3.54,0-6.37-1.58-8.47-4.73-2.1-3.15-3.15-6.27-3.15-9.35s.33-5.94.98-8.56c-7.61,12.6-14.17,19.75-19.69,21.46-1.57.66-3.12.98-4.63.98s-2.99-.2-4.43-.59c-6.43-1.7-9.65-6.82-9.65-15.36,0-5.77,1.48-12.17,4.43-19.2,2.95-7.02,7.12-13.75,12.5-20.18,5.38-6.43,11.88-10.76,19.49-12.99,2.76-.92,6-1.38,9.75-1.38s7.91,1.18,12.5,3.54c8.92-16.8,16.54-32.35,22.84-46.66,1.84-4.33,3.64-7.12,5.41-8.37,1.77-1.25,3.41-1.87,4.92-1.87h2.76c.33,0,1.57.17,3.74.49,2.17.33,3.84.43,5.02.3-3.02,2.76-11.02,16.14-24.02,40.16-16.54,30.71-26.51,51.19-29.93,61.42-1.31,3.81-1.97,6.96-1.97,9.45ZM472.96,233.37c-1.71-1.7-4.1-2.56-7.19-2.56s-7.38,2.3-12.9,6.89c-8.79,7.35-16.08,16.41-21.85,27.17-3.81,7.09-5.71,12.93-5.71,17.52,0,2.1.42,4,1.28,5.71.85,1.71,2.2,2.56,4.04,2.56,4.46,0,9.97-4.59,16.54-13.78,6.56-9.19,15.16-23.69,25.79-43.51Z"/>
    <path class="st1" d="M502.69,266.24c-1.84,4.46-2.76,9.45-2.76,14.96,0,3.68.82,6.6,2.46,8.76,1.64,2.17,3.97,3.25,6.99,3.25,11.94,0,22.77-11.22,32.48-33.67.92-2.1,2.03-3.02,3.35-2.76.52.13.79.46.79.98s-1.48,3.97-4.43,10.34c-2.95,6.37-5.94,11.52-8.96,15.45-6.69,9.19-14.96,13.78-24.81,13.78-5.25,0-9.71-1.7-13.39-5.12-3.68-3.41-5.51-8.07-5.51-13.98s1.41-12.17,4.23-18.8c2.82-6.63,6.66-12.8,11.52-18.51,4.85-5.71,10.43-9.87,16.73-12.5,3.02-1.31,5.91-1.97,8.66-1.97s5.32.79,7.68,2.36c2.23,1.84,3.35,3.87,3.35,6.1,0,7.88-4.73,15.42-14.17,22.64-2.89,2.23-6.96,4.23-12.21,6-5.25,1.77-9.25,2.66-12.01,2.66ZM535.76,234.74c0-2.62-1.05-3.94-3.15-3.94-3.68,0-9.25,4.53-16.73,13.58-4.46,5.51-8.4,11.68-11.81,18.51,2.23,0,5.48-.79,9.75-2.36,4.26-1.58,7.97-3.67,11.12-6.3,7.22-6.17,10.83-12.66,10.83-19.49Z"/>
    <path class="st1" d="M820.04,226.08c0-9.06-4.27-13.58-12.8-13.58-1.18,0-2.63.1-4.33.3-1.71.2-2.89-.23-3.54-1.28-1.05-1.44.66-2.43,5.12-2.95,1.58-.26,3.15-.39,4.73-.39,7.61,0,12.8,3.28,15.55,9.84,1.18,2.76,1.77,6.27,1.77,10.53s-1.84,9.62-5.51,16.04c-6.43,11.68-16.54,20.41-30.32,26.18-4.6,1.97-9.35,2.95-14.27,2.95s-10.01-1.25-15.26-3.74c-9.71-4.59-16.47-12.27-20.28-23.03-1.45-4.2-2.17-9.48-2.17-15.85s1.77-14.4,5.32-24.12c8.14-19.03,21.52-35.24,40.16-48.63,19.95-14.44,38.59-21.66,55.91-21.66,14.7,0,24.54,5.91,29.53,17.72,2.23,5.12,3.35,11.29,3.35,18.51,0,2.36-.13,4.79-.39,7.28-1.31,11.42-4.73,24.48-10.24,39.18-.92,2.49-1.38,4.17-1.38,5.02s.2,1.28.59,1.28c.66.13,1.77-1.25,3.35-4.13,9.71-17.72,20.41-33.6,32.09-47.64,3.8-4.59,8.4-8.33,13.78-11.22,5.91-3.15,11.19-4.72,15.85-4.72s8.33,1.71,11.02,5.12c2.69,3.41,4.04,7.94,4.04,13.58,0,13.26-5.19,35.37-15.55,66.35-2.1,6.17-3.42,10.11-3.94,11.81,10.63-16.67,23.98-35.01,40.06-55.03,16.08-20.01,30.35-31.86,42.82-35.54,2.23-.66,4.2-.98,5.91-.98,4.99,0,8.2,2.49,9.65,7.48.52,1.71.79,3.68.79,5.91,0,6.69-2.63,15.29-7.88,25.79-10.76,21.53-18.11,38.65-22.05,51.38-5.38,16.8-8.07,28.29-8.07,34.45s.59,11.29,1.77,15.36c2.36,8.14,8.59,12.21,18.7,12.21.52,0,1.61-.03,3.25-.1,1.64-.07,2.56.23,2.76.89.2.66-.26,1.25-1.38,1.77-1.12.52-2.23.79-3.35.79s-2-.07-2.66-.2c-20.74-2.1-31.11-12.73-31.11-31.89,0-6.96,1.41-14.86,4.23-23.72,2.82-8.86,5.22-15.65,7.19-20.38,3.15-7.61,9.78-22.51,19.88-44.69,3.54-8.27,5.32-14.57,5.32-18.9s-1.84-6.5-5.51-6.5c-5.12,0-13.06,5.25-23.82,15.75-5.51,5.51-11.49,12.24-17.92,20.18-6.43,7.94-15.95,21.85-28.55,41.74-12.6,19.88-20.61,33.9-24.02,42.03-3.02,7.09-7.02,10.63-12.01,10.63-3.54,0-5.65-1.25-6.3-3.74-.39-1.05-.39-1.87,0-2.46.39-.59,1.64-2.79,3.74-6.6,2.1-3.8,4.26-7.81,6.5-12.01,2.23-4.2,4.89-9.91,7.97-17.13,3.08-7.22,5.94-14.57,8.56-22.05,6.3-18.51,10.56-37.54,12.8-57.09.26-2.23.39-5.02.39-8.37s-.89-6-2.66-7.97c-1.77-1.97-3.64-2.95-5.61-2.95-6.43,0-13.52,4.86-21.26,14.57-10.5,12.99-19.62,25.76-27.37,38.29-7.75,12.54-13.68,23.07-17.82,31.6-4.13,8.53-8.93,18.8-14.37,30.81-5.45,12.01-8.34,18.41-8.66,19.19-.33.79-.79,1.77-1.38,2.95-.59,1.18-1.08,2.29-1.48,3.35-1.71,3.81-5.38,5.71-11.03,5.71-3.28,0-5.05-1.05-5.32-3.15,0-.39.06-.86.2-1.38,8.66-13.39,18.24-33.67,28.74-60.83,13.39-34.39,20.08-59.46,20.08-75.21,0-18.77-7.75-28.15-23.23-28.15-9.98,0-22.54,4.79-37.7,14.37-15.16,9.58-27.73,21.85-37.7,36.82-3.94,5.91-6.89,11.62-8.86,17.13-3.41,10.11-5.12,18.11-5.12,24.02,0,16.93,5.64,28.09,16.93,33.47,3.94,1.97,7.94,2.95,12.01,2.95,14.17,0,25.79-7.68,34.85-23.03,4.59-7.74,6.89-14.5,6.89-20.28Z"/>
    <path class="st1" d="M1043.88,227.66c9.58,0,14.37,6.04,14.37,18.11,0,5.51-1.45,11.42-4.33,17.72-3.68,8.53-9.19,16.28-16.54,23.23,1.7,3.28,4.79,4.92,9.25,4.92,3.54,0,6.89-1.77,10.04-5.32,3.94-4.07,6.76-7.64,8.47-10.73,1.7-3.08,2.95-5.35,3.74-6.79.79-1.44,1.8-3.51,3.05-6.2,1.25-2.69,2-4.33,2.26-4.92.26-.59.72-.89,1.38-.89,1.31-.13,1.97.33,1.97,1.38,0,.39-.13.86-.39,1.38l-1.18,2.76c-.79,1.84-1.38,3.15-1.77,3.94-.39.79-1.08,2.2-2.07,4.23-.98,2.04-1.84,3.64-2.56,4.82-.72,1.18-1.71,2.76-2.95,4.73-1.25,1.97-2.36,3.54-3.35,4.73s-2.2,2.49-3.64,3.94-2.82,2.56-4.13,3.35c-3.28,1.97-6.37,2.95-9.25,2.95-5.38,0-9.58-1.7-12.6-5.12-6.04,4.46-11.62,6.69-16.73,6.69-9.58,0-14.37-6.04-14.37-18.11,0-5.51,1.44-11.42,4.33-17.72,3.94-9.19,9.48-17,16.64-23.43,7.15-6.43,13.94-9.65,20.38-9.65ZM1046.05,233.76c-3.54,0-7.75,2.36-12.6,7.09-4.86,4.72-9.19,11.16-12.99,19.29-4.6,9.45-6.89,17.2-6.89,23.23s2.29,9.06,6.89,9.06c3.28,0,6.96-1.77,11.03-5.32-2.1-3.02-3.15-6.23-3.15-9.65.26-5.64,2.56-8.47,6.89-8.47,1.7,0,3.12.59,4.23,1.77,1.11,1.18,1.67,2.26,1.67,3.25s-.13,2-.39,3.05c2.23-3.28,4.79-7.94,7.68-13.98,3.28-6.69,4.92-13.26,4.92-19.69s-2.43-9.65-7.28-9.65Z"/>
    <path class="st1" d="M1115.54,285.14c0,4.2,1.7,6.3,5.12,6.3,6.17,0,14.37-10.3,24.61-30.91.39-.79.75-1.58,1.08-2.36.33-.79.85-1.31,1.58-1.57.72-.26,1.21-.1,1.48.49.26.59.13,1.54-.39,2.85-10.5,24.41-21.13,36.62-31.89,36.62-3.54,0-6.37-1.58-8.47-4.73-2.1-3.15-3.15-6.27-3.15-9.35s.33-5.94.98-8.56c-7.61,12.6-14.17,19.75-19.69,21.46-1.58.66-3.12.98-4.63.98s-2.99-.2-4.43-.59c-6.43-1.7-9.65-6.82-9.65-15.36,0-5.77,1.48-12.17,4.43-19.2,2.95-7.02,7.12-13.75,12.5-20.18,5.38-6.43,11.88-10.76,19.49-12.99,2.76-.92,6-1.38,9.75-1.38s7.91,1.18,12.5,3.54c8.92-16.8,16.54-32.35,22.84-46.66,1.84-4.33,3.64-7.12,5.41-8.37,1.77-1.25,3.41-1.87,4.92-1.87h2.76c.33,0,1.58.17,3.74.49,2.17.33,3.84.43,5.02.3-3.02,2.76-11.03,16.14-24.02,40.16-16.54,30.71-26.51,51.19-29.92,61.42-1.31,3.81-1.97,6.96-1.97,9.45ZM1125.19,233.37c-1.71-1.7-4.1-2.56-7.19-2.56s-7.38,2.3-12.9,6.89c-8.79,7.35-16.08,16.41-21.85,27.17-3.81,7.09-5.71,12.93-5.71,17.52,0,2.1.42,4,1.28,5.71.85,1.71,2.2,2.56,4.04,2.56,4.46,0,9.97-4.59,16.54-13.78,6.56-9.19,15.16-23.69,25.79-43.51Z"/>
    <path class="st1" d="M1196.06,259.25c-4.33,8.34-6.92,14.57-7.78,18.7-.86,4.13-1.28,7.48-1.28,10.04s.98,3.84,2.95,3.84c2.49,0,5.58-2.29,9.25-6.89,5.38-6.69,10.7-15.42,15.95-26.18.52-1.18,1.11-1.84,1.77-1.97,1.05-.39,1.58,0,1.58,1.18,0,.66-.2,1.45-.59,2.36-12.08,24.41-22.25,36.62-30.51,36.62-3.81,0-6.89-1.84-9.25-5.51-1.18-1.97-1.77-4.59-1.77-7.87s.66-7.28,1.97-12.01c-10.5,16.93-19.56,25.4-27.17,25.4-2.1,0-4-.66-5.71-1.97-3.94-2.76-5.91-7.48-5.91-14.17,0-12.86,5.58-25.92,16.73-39.18,6.3-7.35,14.04-12.14,23.23-14.37,2.49-.66,4.85-.98,7.09-.98,6.04,0,11.15,2.1,15.36,6.3,1.31,1.45,1.7,2.82,1.18,4.13-.53,1.31-1.64,1.84-3.35,1.58-1.45-4.73-4.6-7.09-9.45-7.09-5.65,0-12.6,4.46-20.87,13.39-4.72,5.25-9.12,11.42-13.19,18.51-5.12,8.53-7.68,15.36-7.68,20.48s1.64,7.68,4.92,7.68c7.88,0,18.18-12.07,30.91-36.23,2.49-4.85,4.59-8.17,6.3-9.94,1.7-1.77,3.87-2.66,6.5-2.66.52,0,1.87.2,4.04.59,2.17.39,3.77.46,4.82.2-2.36,2.36-5.71,7.71-10.04,16.05Z"/>
  </g>
  <g>
    <g>
      <path class="st0" d="M710.89,124.98c-.42,17.93-8.52,42.16-24.23,53.29-6.4,4.56-14.07,6.91-23,5.78-.06-.01-.11-.01-.17-.02-1.81-.25-3.73-.73-5.06-2.54-.8-1.07-1.31-2.51-1.75-3.95-.05-.15-.09-.3-.14-.46-.78-2.61-1.35-5.35-1.74-8.14,6.47-4.15,10.97-13.29,10.97-23.9,0-5.52-1.23-10.64-3.31-14.88-1.36,1.08-2.75,2.08-4.3,2.85-7,3.42-14.65,2.7-19.36,10.01-2.73,4.24-3.78,9.4-9.6,10.03h-.21c1.8,7.9,6.2,14.17,11.8,16.88,0,.02.02.04.03.06-1.76,6.84-5.68,12.53-10.4,14.84-.73.37-1.48.65-2.24.84-.47.11-.94.21-1.4.26-2.55.33-5.15-.14-7.67-.92-7.3-2.29-14.13-7.27-20-14.03-2.27-2.59-4.37-5.42-6.32-8.47-5.69-8.9-10.03-19.53-13.12-30.88-.3-1.09,1.02-1.85,1.82-1.06,5.56,5.5,14.93,6.14,22.55,5.76,3.65-.18,7.27-.59,10.85-1.22,8.93-1.55,17.64-4.46,25.73-8.56,7.81-3.97,14.35-9.5,20.83-15.14,4.3-3.76,8.59-7.58,13.19-11.01,5.99-4.47,13.68-7.67,20.88-5.65,6.7,1.9,11.53,8.04,13.64,14.68.8,2.54,1.27,5.15,1.52,7.78.25,2.59.28,5.2.22,7.8Z"/>
      <path class="st0" d="M657.44,100.13c-.78.68-1.56,1.37-2.34,2.04-6.48,5.64-13.02,11.17-20.83,15.14-6.26,3.18-12.88,5.63-19.71,7.29-1.29-8.7,1.48-17.77,8.4-23.54,6.43-5.35,14.86-6.44,22.86-4.9,4.09.79,8.1,2.07,11.62,3.97Z"/>
    </g>
    <g>
      <path class="st0" d="M646.99,158.03s-2.18-3.09-7.09,1.79h1.8c1.08,2.99,2.88,3.46,5.5,3.46,4.89,0,5.09-3.46,5.09-3.46h1.8s-4.15-4.77-7.09-1.79Z"/>
      <path class="st3" d="M646.64,230.18c-.61,1.32-.94,2.11-.94,2.11-.05-.08-.09-.16-.14-.24.36-.63.72-1.26,1.09-1.87Z"/>
      <path class="st3" d="M675.63,224c.63-2.47,1.09-5.24,1.2-8.28.16,2.66-.2,5.45-1.2,8.28Z"/>
      <path class="st3" d="M615.49,224c-.99-2.83-1.35-5.62-1.2-8.28.11,3.04.57,5.81,1.2,8.28Z"/>
      <path class="st3" d="M645.55,232.05c-.05.08-.09.16-.14.24,0,0-.33-.79-.94-2.11.36.61.72,1.24,1.09,1.87Z"/>
      <path class="st5" d="M761.17,367.78c-.92-.44-1.9-.74-2.89-.92h-.05c-3.97-.78-8.33.17-12.13,1.55-4.99,1.82-9.46,4.79-13.38,8.38-2.72,2.49-5.41,4.68-8.03,6.59-24.66,18-44.18,12.1-44.18,12.1-.81-.28-1.61-.55-2.4-.8-1.84-.59-3.7-1.1-5.56-1.54-8.59-2.02-17.47-2.49-26.27-1.68-2.24.21-4.48.49-6.71.86-7.53,1.24-14,1.42-19.56.81-16.73-1.77-25.16-10.37-29.23-16.97-2.32-3.74-5.88-5.59-9.51-5.89-5.17-.41-10.53,2.39-12.58,7.42-.63,1.54-.94,3.29-.86,5.21,0,.07,0,.16.01.23,0,.09.01.16.02.25-2.62-1.91-5.31-4.1-8.03-6.59-3.92-3.58-8.39-6.55-13.38-8.38-3.81-1.38-8.17-2.33-12.13-1.55h-.05c-.99.18-1.96.48-2.89.92.42-.81.85-1.61,1.28-2.41,32.04-40.13,61.83-75.56,84.36-97.99,4.36-4.35,8.46-8.22,12.24-11.53l-4.27-18.45c-4.96-4.42-7.98-8.98-9.5-13.4-.63-2.48-1.08-5.25-1.19-8.28-.06-1.07-.01-2.14-.05-3.3-.09-2.94.25-5.91,1.33-8.65,1.64-4.16,3.78-5.59,6.17-5.21h.01c8.25,1.37,19.42,24.45,22.7,31.62.62,1.32.95,2.11.95,2.11.05-.07.1-.16.15-.23.04.07.09.16.14.23,0,0,.2-.48.59-1.32.1-.23.22-.49.36-.79,3.47-7.59,15.8-33.05,24.15-31.62h.01c1.56.27,3.01,1.52,4.21,4.02,1.43,2.94,1.82,8.06,1.84,11.33,0,.62,0,1.21-.02,1.81-.11,3.03-.57,5.8-1.21,8.28-1.5,4.42-4.53,8.98-9.48,13.4l-5.43,18.45s5.81,4.13,14.88,11.58c.02.01.04.04.05.05,21.32,17.54,60.52,53.53,84.23,97.84.44.81.87,1.64,1.31,2.46Z"/>
      <polygon class="st0" points="629.26 257.49 660.7 257.49 663.42 248.26 626.24 248.26 629.26 257.49"/>
      <g>
        <path class="st2" d="M568.68,377.68s-3.52-8.5,58.45-97.98"/>
        <path class="st0" d="M567.3,378.26c-.14-.31-.14-.72-.15-1.05.59-4.85,3.02-9.22,5.04-13.57,6.43-12.88,14.09-25.07,21.82-37.17,5.04-7.78,10.68-16.16,15.94-23.83,5.41-7.87,10.64-15.87,17.2-22.94-6.46,12.74-15.38,24.25-22.83,36.38-7.7,12.02-15.35,24.12-22.45,36.5-4.21,7.68-8.92,15.28-11.51,23.66-.12.4-.16.74-.19,1.1,0,0,0,.05,0,.02-.01-.09-.04-.17-.08-.25.73,1.82-1.99,2.97-2.77,1.15h0Z"/>
      </g>
      <g>
        <line class="st4" x1="600.88" y1="386.62" x2="615.49" y2="338.19"/>
        <path class="st0" d="M599.45,386.19c2.37-8.09,4.89-16.14,7.51-24.15,2.36-7.07,5.41-17.14,8.53-23.84-2.1,12.01-6.3,25.02-9.54,36.75-1.16,4.05-2.39,8.08-3.63,12.11-.6,1.85-3.4,1.03-2.87-.87h0Z"/>
      </g>
      <g>
        <path class="st2" d="M680.49,395.47s2.01-40.91-33.5-128.64"/>
        <path class="st0" d="M678.99,395.39c-.07-10.88-1.91-22.04-3.9-32.74-5.25-27.24-13.7-53.8-23.07-79.88-1.88-5.23-3.65-10.51-5.04-15.95,3.97,7.39,7.27,15.08,10.13,22.96,10.69,28.71,19.97,58.36,23.85,88.84.62,5.5,1.21,11.34,1.03,16.92-.11,1.96-3.07,1.87-3-.15h0Z"/>
      </g>
      <g>
        <path class="st2" d="M729.49,377.68s-27.5-59.33-58.14-83.01"/>
        <path class="st0" d="M728.13,378.31c-15.1-30.19-32.37-59.93-56.78-83.64,7.25,4.59,13.38,10.75,18.94,17.24,6.83,8.05,13.21,17.03,18.95,25.86,7.95,12.64,15.35,25.72,21.61,39.28.78,1.76-1.84,3.04-2.72,1.26h0Z"/>
      </g>
    </g>
  </g>
</svg>